<svg xmlns="http://www.w3.org/2000/svg" width="585" height="315" viewBox="0 0 154.782 83.344" fill="none" stroke="#545454" stroke-width="1.265" stroke-linecap="round" stroke-linejoin="round" xmlns:v="https://vecta.io/nano"><path d="M23.808 58.553C35.255 48.3 46.702 38.046 55.497 27.373S70.436 5.606 68.469 3.441s-12.043 4.596-24.498 14.04S16.685 39.05 9.047 47.764.967 61.779 4.76 64.027s11.823 1.442 19.408.032 14.727-3.424 16.573-2.388-1.604 5.123-6.968 9.152-12.642 7.999-16.837 9.238-5.304-.256-3.05-2.878 7.871-6.369 13.489-10.117M58.73 34.788l-5.66 19.036c-1.035 3.785-.793 3.731-.037 2.623s2.025-3.267 3.236-5.107 2.363-3.36 3.287-3.948 1.619-.244 1.697 1.077-.463 3.619-.408 4.814.704 1.288 1.967.131 3.137-3.563 4.481-6.391 2.156-6.078 2.156-5.875-.813 3.859-.937 6.094.438 3.047 1.586 2.734 2.883-1.75 4.141-4.227 2.039-5.992 1.985-6.18-.946 2.953-1.188 5.227.164 3.68 1.867 2.273 4.703-5.625 6.927-11.085 3.671-12.161 3.374-11.348-2.338 9.139-3.234 13.896-.646 5.944.228 6.097 2.37-.731 3.304-2.112 1.303-3.261.761-4.202-1.997-.942-3.039-.826-1.674.348-.983.26 2.703-.496 3.594.082.66 2.143.732 3.144.447 1.439 1.228.751 1.969-2.5 3.079-5.324 2.143-6.658 2.831-9.752 1.03-5.447.451-2.748-2.079 10.449-2.793 14.486-.644 4.362-.266 3.502 1.063-2.904 2.002-4.766 2.132-3.541 3.066-4.149 1.608-.144 1.746 1.072-.26 3.182-.282 4.298.33 1.381 1.316.477 2.605-2.977 3.912-4.887 2.301-3.658 3.258-4.774 1.879-1.6 2.561-1.714 1.126.142 1.33.854.17 1.877.119 1.642-.12-1.87-.952-2.232-2.428.55-3.458 2.165-1.495 3.932-1.414 5.266.705 1.686 1.893 1.358 2.937-1.335 4.181-3.417 1.983-5.24 2.16-6.361-.206-.208-.655 1.239-.963 3.426-.76 4.576 1.126 1.468 2.156.86 2.171-2.145 3.409-4.184 2.575-4.58 3.111-5.127.271.9-.149 2.608-.994 3.673-1.232 4.69-.138 1.083.296.304 1.201-2.403 1.969-4.027 1.536-3.249 2.296-3.795 1.511-.017 1.704 1.188-.171 3.083-.011 4.188.845 1.436 1.917.403 2.53-3.431 3.569-5.188 1.657-2.873 2.387-2.939 1.569.917 2.254 2.853 1.215 4.824 1.44 7.854.145 6.199.065 9.369" paint-order="normal"/><path d="M48.603 67.039c16.264-6.806 32.529-13.612 49.677-19.535s35.18-10.961 53.212-15.999" paint-order="normal"/></svg>