<?xml version="1.0" encoding="UTF-8" standalone="no"?>
<!-- Created with Inkscape (http://www.inkscape.org/) -->

<svg
   width="585"
   height="315"
   viewBox="0 0 154.78194 83.343742"
   version="1.1"
   id="svg5"
   inkscape:version="1.1 (c68e22c387, 2021-05-23)"
   sodipodi:docname="s_3.svg"
   xmlns:inkscape="http://www.inkscape.org/namespaces/inkscape"
   xmlns:sodipodi="http://sodipodi.sourceforge.net/DTD/sodipodi-0.dtd"
   xmlns="http://www.w3.org/2000/svg"
   xmlns:svg="http://www.w3.org/2000/svg">
  <sodipodi:namedview
     id="namedview7"
     pagecolor="#ffffff"
     bordercolor="#666666"
     borderopacity="1.0"
     inkscape:pageshadow="2"
     inkscape:pageopacity="0.0"
     inkscape:pagecheckerboard="0"
     inkscape:document-units="mm"
     showgrid="false"
     height="210mm"
     units="px"
     width="793px"
     inkscape:zoom="0.47"
     inkscape:cx="62.765957"
     inkscape:cy="145.74468"
     inkscape:window-width="1360"
     inkscape:window-height="745"
     inkscape:window-x="-8"
     inkscape:window-y="-8"
     inkscape:window-maximized="1"
     inkscape:current-layer="layer1" />
  <defs
     id="defs2">
    <inkscape:path-effect
       effect="bspline"
       id="path-effect15770"
       is_visible="true"
       lpeversion="1"
       weight="33.333333"
       steps="2"
       helper_size="0"
       apply_no_weight="true"
       apply_with_weight="true"
       only_selected="false" />
    <inkscape:path-effect
       effect="bspline"
       id="path-effect4960"
       is_visible="true"
       lpeversion="1"
       weight="33.333333"
       steps="2"
       helper_size="0"
       apply_no_weight="true"
       apply_with_weight="true"
       only_selected="false" />
    <inkscape:path-effect
       effect="bspline"
       id="path-effect3308"
       is_visible="true"
       lpeversion="1"
       weight="33.333333"
       steps="2"
       helper_size="0"
       apply_no_weight="true"
       apply_with_weight="true"
       only_selected="false" />
  </defs>
  <g
     inkscape:label="Layer 1"
     inkscape:groupmode="layer"
     id="layer1">
    <path
       style="fill:none;stroke:#10328a;stroke-width:1.265;stroke-linecap:round;stroke-linejoin:round;stroke-miterlimit:4;stroke-dasharray:none;stroke-opacity:1;paint-order:normal"
       d="M 23.808433,58.55317 C 35.255326,48.299642 46.701969,38.046338 55.49719,27.372794 64.292412,16.69925 70.43557,5.6062201 68.468898,3.4405265 66.502225,1.274833 56.425444,8.036879 43.971052,17.480707 31.516661,26.924535 16.684974,39.049895 9.0473632,47.763821 1.4097526,56.477748 0.96687691,61.779278 4.7602828,64.027029 c 3.7934058,2.24775 11.8226832,1.441893 19.4084412,0.03175 7.585758,-1.410148 14.727302,-3.424405 16.573306,-2.388151 1.846004,1.036255 -1.603564,5.122832 -6.967702,9.151625 C 28.41019,74.851041 21.132,78.821654 16.937793,80.059885 12.743585,81.298116 11.633741,79.80347 13.88761,77.181922 16.141479,74.560375 21.759075,70.812501 27.376716,67.064597"
       id="path3306"
       sodipodi:nodetypes="cccccccccccc"
       inkscape:original-d="M 23.808433,58.55317 C 35.255573,48.299917 46.702219,38.046617 58.149058,27.792634 64.29275,16.699437 70.435911,5.606409 76.578918,-5.4871532 66.502449,1.2751662 56.425662,8.0372045 46.348611,14.798959 31.516894,26.92482 16.685208,39.050181 1.8526664,51.175762 1.4100373,56.477772 0.96716118,61.779302 0.52401218,67.080677 8.5537177,66.275069 16.582995,65.469213 24.612331,64.663055 c 7.142238,-2.014119 14.283782,-4.028377 21.42549,-6.043015 -3.449505,4.087076 -6.899069,8.173657 -10.349101,12.260203 -7.278358,3.971114 -14.556551,7.94172 -21.835442,11.912314 -1.109649,-1.494474 -2.219496,-2.989118 -3.329672,-4.484124 5.618076,-3.747754 11.23567,-7.49563 16.85311,-11.243836"
       inkscape:path-effect="#path-effect3308" />
    <path
       style="fill:none;stroke:#10328a;stroke-width:1.265;stroke-linecap:round;stroke-linejoin:round;stroke-miterlimit:4;stroke-dasharray:none;stroke-opacity:1;paint-order:normal"
       d="m 58.729648,34.787615 c -2.31267,7.625519 -4.625286,15.250858 -5.660373,19.036082 -1.035086,3.785225 -0.792894,3.730536 -0.03707,2.623137 0.755826,-1.1074 2.02543,-3.267488 3.236468,-5.107483 1.211038,-1.839994 2.36337,-3.359656 3.287367,-3.947545 0.923997,-0.587889 1.619345,-0.244141 1.696739,1.076824 0.07739,1.320965 -0.462784,3.618963 -0.407923,4.814278 0.05486,1.195315 0.704418,1.287958 1.96662,0.131073 1.262202,-1.156884 3.137257,-3.563194 4.481071,-6.391406 1.343813,-2.828212 2.156318,-6.078234 2.156319,-5.87509 10e-7,0.203143 -0.812519,3.85949 -0.937392,6.094029 -0.124873,2.234539 0.437633,3.047047 1.586054,2.734364 1.148422,-0.312682 2.882813,-1.750196 4.14079,-4.226859 1.257978,-2.476663 2.039476,-5.992412 1.984782,-6.179936 -0.05469,-0.187523 -0.94558,2.953272 -1.187828,5.226952 -0.242247,2.27368 0.164014,3.67997 1.867179,2.273482 1.703165,-1.406487 4.703241,-5.625347 6.927003,-11.085376 2.223763,-5.460028 3.671072,-12.160883 3.374178,-11.348337 -0.296894,0.812546 -2.337996,9.13858 -3.233505,13.895528 -0.895509,4.756947 -0.645505,5.944479 0.228015,6.09652 0.87352,0.152041 2.370437,-0.731024 3.303814,-2.112359 0.933376,-1.381336 1.303217,-3.261025 0.761036,-4.20153 -0.542182,-0.940505 -1.996614,-0.941505 -3.039498,-0.825774 -1.042884,0.11573 -1.673945,0.348227 -0.983256,0.260439 0.69069,-0.08779 2.702997,-0.495869 3.593561,0.08242 0.890563,0.578292 0.659508,2.142675 0.73163,3.143662 0.07212,1.000987 0.44714,1.438503 1.228293,0.750843 0.781154,-0.687661 1.968691,-2.500211 3.078909,-5.323866 1.110218,-2.823655 2.143046,-6.658274 2.8306,-9.752205 0.687554,-3.093932 1.029742,-5.446891 0.450785,-2.748153 -0.578956,2.698737 -2.078997,10.448935 -2.793498,14.486329 -0.7145,4.037394 -0.643536,4.361739 -0.265589,3.501775 0.377947,-0.859965 1.062963,-2.903964 2.002156,-4.765814 0.939193,-1.861849 2.132468,-3.541271 3.066297,-4.148886 0.933828,-0.607616 1.607793,-0.143575 1.745736,1.071839 0.13794,1.215413 -0.25982,3.182112 -0.282168,4.298111 -0.02235,1.115999 0.33036,1.381237 1.316268,0.477315 0.98591,-0.903923 2.60523,-2.976695 3.91191,-4.886958 1.30667,-1.910263 2.30062,-3.657961 3.25808,-4.773919 0.95746,-1.115959 1.87891,-1.600478 2.56106,-1.714331 0.68214,-0.113853 1.12587,0.142368 1.33047,0.854027 0.2046,0.711659 0.17022,1.876722 0.11871,1.641683 -0.0515,-0.235039 -0.12002,-1.870002 -0.95233,-2.232141 -0.83231,-0.362139 -2.42797,0.550008 -3.45822,2.164783 -1.03025,1.614774 -1.49466,3.931642 -1.41418,5.265922 0.0805,1.33428 0.70548,1.685843 1.89287,1.357932 1.18739,-0.32791 2.93724,-1.335025 4.18139,-3.417254 1.24415,-2.08223 1.98259,-5.239603 2.1601,-6.361354 0.17751,-1.121752 -0.20591,-0.207738 -0.65486,1.23911 -0.44896,1.446848 -0.96343,3.426348 -0.75958,4.575639 0.20385,1.14929 1.12564,1.468415 2.15642,0.85963 1.03077,-0.608784 2.17077,-2.145327 3.40928,-4.184299 1.23851,-2.038972 2.57538,-4.580118 3.11129,-5.127009 0.5359,-0.546891 0.27074,0.90046 -0.14914,2.607563 -0.41988,1.707103 -0.99424,3.67317 -1.23171,4.690014 -0.23746,1.016844 -0.13804,1.083121 0.29552,0.304093 0.43356,-0.779028 1.20145,-2.402989 1.9694,-4.027271 0.76795,-1.624282 1.53579,-3.248542 2.29553,-3.795428 0.75974,-0.546886 1.5111,-0.01652 1.70429,1.18784 0.1932,1.204359 -0.17141,3.082647 -0.011,4.187541 0.16039,1.104894 0.84541,1.436347 1.91701,0.403202 1.07161,-1.033146 2.53004,-3.430713 3.56867,-5.187525 1.03863,-1.756813 1.65735,-2.87272 2.38676,-2.938922 0.72941,-0.0662 1.56917,0.917196 2.25393,2.853069 0.68475,1.935873 1.2148,4.82446 1.43984,7.853906 0.22504,3.029446 0.14511,6.198878 0.0652,9.368806"
       id="path4958"
       sodipodi:nodetypes="cccccccccccccccccccccccccccccccccccccccccscccccccccccccccccccccccc"
       inkscape:original-d="m 58.729648,34.787615 c -2.312352,7.625615 -4.624972,15.250953 -6.937854,22.876041 0.24247,-0.0544 0.484658,-0.10911 0.726598,-0.16407 1.269955,-2.159968 2.539558,-4.320056 3.808987,-6.480564 1.15263,-1.519441 2.304963,-3.039102 3.457009,-4.559003 0.695597,0.344007 1.390946,0.687754 2.086044,1.031244 -0.539947,2.298405 -1.080126,4.596403 -1.6206,6.894271 0.649857,0.0929 1.299412,0.185557 1.948742,0.277937 1.8754,-2.406145 3.750458,-4.812453 5.625282,-7.219078 0.812817,-3.249952 1.625321,-6.499974 2.437608,-9.750446 -0.812287,3.656749 -1.624801,7.313098 -2.437608,10.96925 0.562807,0.812814 1.125304,1.625328 1.687581,2.437615 1.734751,-1.437331 3.469142,-2.874845 5.20336,-4.312696 0.781809,-3.515691 1.563307,-7.031441 2.344589,-10.547672 -0.890663,3.141205 -1.78155,6.282 -2.672726,9.422618 0.406537,1.406604 0.812794,2.812895 1.218804,4.218936 3.000452,-4.218756 6.000534,-8.437612 9.000399,-12.656818 1.447661,-6.701001 2.894975,-13.401855 4.342109,-20.103396 -2.040922,8.326642 -4.082022,16.652677 -6.12343,24.978609 0.250277,1.187844 0.500287,2.375375 0.750027,3.562669 1.497279,-0.882857 2.994196,-1.765922 4.490942,-2.649306 0.370128,-1.879539 0.739969,-3.759228 1.109568,-5.639298 -1.454267,-7.35e-4 -2.908699,-0.0017 -4.363504,-0.003 -0.630846,0.23278 -1.261907,0.465277 -1.893283,0.697528 2.0127,-0.407841 4.025007,-0.815921 6.037166,-1.224289 -0.230796,1.564691 -0.461852,3.129074 -0.693172,4.693198 0.375288,0.437787 0.750306,0.875304 1.125056,1.312551 1.187844,-1.812348 2.37538,-3.624899 3.562666,-5.437737 1.033156,-3.834589 2.065982,-7.669208 3.098608,-11.504314 0.342468,-2.352798 0.684658,-4.705756 1.026586,-7.059031 -1.499834,7.750765 -2.999878,15.500963 -4.500212,23.251048 0.0712,0.324607 0.142188,0.648947 0.212888,0.973014 0.685318,-2.043848 1.370336,-4.087846 2.055122,-6.132224 1.193586,-1.679211 2.386862,-3.358632 3.579896,-5.038363 0.674278,0.464337 1.348246,0.928374 2.021984,1.392184 -0.39751,1.967028 -0.795278,3.933726 -1.193306,5.900184 0.352998,0.26552 0.705708,0.530757 1.058156,0.795737 1.61969,-2.072638 3.23902,-4.145406 4.85818,-6.218574 0.9942,-1.747412 1.98815,-3.495111 2.98175,-5.242913 0.92118,-0.483975 1.84263,-0.968495 2.76291,-1.452802 0.44379,0.256372 0.88752,0.512591 1.33121,0.768678 -0.0342,1.167154 -0.0686,2.332217 -0.10325,3.498947 -0.0683,-1.636827 -0.13684,-3.271789 -0.20568,-4.90842 -1.59586,0.912679 -3.19152,1.824827 -4.78772,2.736864 -0.46417,2.317258 -0.92858,4.634126 -1.39329,6.950861 0.62531,0.35185 1.25031,0.703417 1.87509,1.054734 1.75023,-1.006914 3.50008,-2.014028 5.24977,-3.021472 0.73874,-3.157258 1.47718,-6.314631 2.21538,-9.472391 -0.38317,0.914318 -0.76659,1.828331 -1.15029,2.742131 -0.51422,1.979844 -1.02869,3.959343 -1.54342,5.938603 0.92207,0.3194 1.84386,0.638517 2.76543,0.957397 1.14033,-1.536381 2.28032,-3.072925 3.42013,-4.609836 1.33724,-2.541085 2.67411,-5.08223 4.01082,-7.623845 -0.26492,1.447721 -0.53008,2.895072 -0.79552,4.342266 -0.57431,1.967048 -1.14867,3.933116 -1.72367,5.900204 0.0997,0.0666 0.19914,0.13284 0.29832,0.19888 0.7683,-1.624001 1.53619,-3.247962 2.30394,-4.872443 0.76815,-1.624081 1.53599,-3.248342 2.30354,-4.872813 0.75158,0.530597 1.50294,1.060964 2.25402,1.591061 -0.36436,1.878631 -0.72897,3.756919 -1.09386,5.63502 0.68532,0.331737 1.37033,0.663197 2.05513,0.994404 1.45877,-2.397428 2.91721,-4.794993 4.37545,-7.192931 0.61902,-1.115701 1.23775,-2.231605 1.85625,-3.347859 0.84002,0.983654 1.67978,1.967054 2.5192,2.950092 0.53028,2.888687 1.06033,5.777273 1.59015,8.66581 -0.0797,3.1704 -0.15961,6.339833 -0.23982,9.509754"
       inkscape:path-effect="#path-effect4960" />
    <path
       style="fill:none;stroke:#10328a;stroke-width:1.265;stroke-linecap:round;stroke-linejoin:round;stroke-miterlimit:4;stroke-dasharray:none;stroke-opacity:1;paint-order:normal"
       d="M 48.602629,67.038837 C 64.867037,60.23255 81.131242,53.426349 98.279623,47.504017 115.428,41.581686 133.45978,36.543425 151.49175,31.505113"
       id="path15768"
       inkscape:original-d="M 48.602629,67.038837 C 64.86718,60.232891 81.131381,53.42668 97.39533,46.620196 c 18.03276,-5.0382 36.06454,-10.076463 54.09642,-15.115083"
       inkscape:path-effect="#path-effect15770" />
  </g>
</svg>
